<?xml version="1.0" encoding="utf-8"?><!-- Uploaded to: SVG Repo, www.svgrepo.com, Generator: SVG Repo Mixer Tools -->
<svg width="800px" height="800px" viewBox="0 0 24 24" fill="none" xmlns="http://www.w3.org/2000/svg">
<path fill-rule="evenodd" clip-rule="evenodd" d="M3.48366 4.50129C3.69784 4.48594 3.89791 4.60907 3.98071 4.8072C4.65474 6.41989 6.0646 7.59126 7.61457 8.40147C8.91301 9.08019 10.2693 9.48367 11.2698 9.67576C11.3709 8.53046 11.6537 7.63841 12.0833 6.96373C12.5876 6.17191 13.2745 5.71137 14.0244 5.49345C15.4431 5.08119 17.0383 5.54585 18.0854 6.07381C18.6178 6.11624 19.1448 6.09377 19.6049 6.01495C20.1007 5.93003 20.4799 5.78646 20.7092 5.62254C20.8683 5.50879 21.0791 5.49826 21.2488 5.59559C21.4185 5.69291 21.5158 5.88022 21.4979 6.07499C21.3903 7.24666 21.0416 8.08435 20.6012 8.67818C20.2507 9.15078 19.8546 9.45218 19.5085 9.64326C18.5033 15.9374 15.5662 18.9348 12.1821 20.0126C8.81153 21.0861 5.13384 20.2091 2.78583 19.0961C2.53631 18.9779 2.4299 18.6797 2.54818 18.4302C2.66646 18.1806 2.96463 18.0742 3.21416 18.1925C5.4305 19.2431 8.83541 20.029 11.8786 19.0598C14.8622 18.1095 17.6361 15.4257 18.5594 9.23745C18.5847 9.06794 18.695 8.92319 18.8518 8.85391C19.1186 8.73599 19.48 8.51128 19.798 8.08247C20.0115 7.79466 20.2143 7.40291 20.3526 6.86843C20.1662 6.92297 19.9717 6.9667 19.7738 7.00059C19.1928 7.1001 18.542 7.12185 17.8975 7.06122C17.8328 7.05514 17.7699 7.03652 17.7124 7.00639C16.7655 6.51067 15.4027 6.13429 14.3035 6.45372C13.7736 6.6077 13.2934 6.92532 12.9268 7.50089C12.554 8.08633 12.2801 8.96901 12.2349 10.276C12.23 10.4171 12.1657 10.5496 12.0579 10.6407C11.9501 10.7318 11.8088 10.7731 11.6689 10.7543C10.5559 10.6054 8.8132 10.1564 7.15132 9.28769C5.88971 8.62822 4.64127 7.70892 3.76425 6.46499C3.63754 7.59792 3.64963 9.00448 3.97614 10.434C4.44702 12.4957 5.56438 14.5813 7.84332 15.9926C8.07393 16.1354 8.14862 16.436 8.01166 16.6701C7.71809 17.172 6.79262 18.0339 5.19572 18.2628C4.92237 18.302 4.66902 18.1122 4.62984 17.8388C4.59065 17.5655 4.78048 17.3121 5.05383 17.2729C5.91887 17.1489 6.49682 16.8044 6.82781 16.5197C4.59978 14.9509 3.48317 12.7667 3.00125 10.6567C2.48778 8.40861 2.68744 6.22111 3.03529 4.87492C3.08901 4.66702 3.26948 4.51663 3.48366 4.50129Z" fill="#000000"/>
</svg>